<?xml version="1.0" standalone="no"?>
<svg xmlns:xlink="http://www.w3.org/1999/xlink" id="wave" style="transform:rotate(180deg); transition: 0.3s" viewBox="0 0 1440 100" version="1.1" xmlns="http://www.w3.org/2000/svg"><defs><linearGradient id="sw-gradient-0" x1="0" x2="0" y1="1" y2="0"><stop stop-color="rgba(253, 252, 251, 1)" offset="0%"/><stop stop-color="rgba(253, 252, 251, 1)" offset="100%"/></linearGradient></defs><path style="transform:translate(0, 0px); opacity:1" fill="url(#sw-gradient-0)" d="M0,20L20,26.7C40,33,80,47,120,55C160,63,200,67,240,58.3C280,50,320,30,360,30C400,30,440,50,480,55C520,60,560,50,600,53.3C640,57,680,73,720,71.7C760,70,800,50,840,41.7C880,33,920,37,960,43.3C1000,50,1040,60,1080,63.3C1120,67,1160,63,1200,55C1240,47,1280,33,1320,33.3C1360,33,1400,47,1440,55C1480,63,1520,67,1560,63.3C1600,60,1640,50,1680,38.3C1720,27,1760,13,1800,15C1840,17,1880,33,1920,33.3C1960,33,2000,17,2040,15C2080,13,2120,27,2160,35C2200,43,2240,47,2280,45C2320,43,2360,37,2400,43.3C2440,50,2480,70,2520,65C2560,60,2600,30,2640,26.7C2680,23,2720,47,2760,50C2800,53,2840,37,2860,28.3L2880,20L2880,100L2860,100C2840,100,2800,100,2760,100C2720,100,2680,100,2640,100C2600,100,2560,100,2520,100C2480,100,2440,100,2400,100C2360,100,2320,100,2280,100C2240,100,2200,100,2160,100C2120,100,2080,100,2040,100C2000,100,1960,100,1920,100C1880,100,1840,100,1800,100C1760,100,1720,100,1680,100C1640,100,1600,100,1560,100C1520,100,1480,100,1440,100C1400,100,1360,100,1320,100C1280,100,1240,100,1200,100C1160,100,1120,100,1080,100C1040,100,1000,100,960,100C920,100,880,100,840,100C800,100,760,100,720,100C680,100,640,100,600,100C560,100,520,100,480,100C440,100,400,100,360,100C320,100,280,100,240,100C200,100,160,100,120,100C80,100,40,100,20,100L0,100Z"/></svg>