<?xml version="1.0" standalone="no"?>
<svg xmlns:xlink="http://www.w3.org/1999/xlink" id="wave" style="transform:rotate(180deg); transition: 0.3s" viewBox="0 0 1440 100" version="1.1" xmlns="http://www.w3.org/2000/svg"><defs><linearGradient id="sw-gradient-0" x1="0" x2="0" y1="1" y2="0"><stop stop-color="rgba(66, 43, 43, 1)" offset="0%"/><stop stop-color="rgba(66, 43, 43, 1)" offset="100%"/></linearGradient></defs><path style="transform:translate(0, 0px); opacity:1" fill="url(#sw-gradient-0)" d="M0,70L34.3,58.3C68.6,47,137,23,206,15C274.3,7,343,13,411,25C480,37,549,53,617,61.7C685.7,70,754,70,823,58.3C891.4,47,960,23,1029,16.7C1097.1,10,1166,20,1234,26.7C1302.9,33,1371,37,1440,41.7C1508.6,47,1577,53,1646,60C1714.3,67,1783,73,1851,78.3C1920,83,1989,87,2057,81.7C2125.7,77,2194,63,2263,50C2331.4,37,2400,23,2469,20C2537.1,17,2606,23,2674,35C2742.9,47,2811,63,2880,66.7C2948.6,70,3017,60,3086,46.7C3154.3,33,3223,17,3291,13.3C3360,10,3429,20,3497,21.7C3565.7,23,3634,17,3703,25C3771.4,33,3840,57,3909,60C3977.1,63,4046,47,4114,48.3C4182.9,50,4251,70,4320,73.3C4388.6,77,4457,63,4526,53.3C4594.3,43,4663,37,4731,31.7C4800,27,4869,23,4903,21.7L4937.1,20L4937.1,100L4902.9,100C4868.6,100,4800,100,4731,100C4662.9,100,4594,100,4526,100C4457.1,100,4389,100,4320,100C4251.4,100,4183,100,4114,100C4045.7,100,3977,100,3909,100C3840,100,3771,100,3703,100C3634.3,100,3566,100,3497,100C3428.6,100,3360,100,3291,100C3222.9,100,3154,100,3086,100C3017.1,100,2949,100,2880,100C2811.4,100,2743,100,2674,100C2605.7,100,2537,100,2469,100C2400,100,2331,100,2263,100C2194.3,100,2126,100,2057,100C1988.6,100,1920,100,1851,100C1782.9,100,1714,100,1646,100C1577.1,100,1509,100,1440,100C1371.4,100,1303,100,1234,100C1165.7,100,1097,100,1029,100C960,100,891,100,823,100C754.3,100,686,100,617,100C548.6,100,480,100,411,100C342.9,100,274,100,206,100C137.1,100,69,100,34,100L0,100Z"/></svg>